<?xml version="1.0" encoding="utf-8"?>
<!-- Generator: Adobe Illustrator 16.0.0, SVG Export Plug-In . SVG Version: 6.00 Build 0)  -->
<!DOCTYPE svg PUBLIC "-//W3C//DTD SVG 1.1//EN" "http://www.w3.org/Graphics/SVG/1.1/DTD/svg11.dtd">
<svg version="1.1" id="Layer_1" xmlns="http://www.w3.org/2000/svg" xmlns:xlink="http://www.w3.org/1999/xlink" x="0px" y="0px"
	 width="215.667px" height="214.333px" viewBox="0 0 215.667 214.333" enable-background="new 0 0 215.667 214.333"
	 xml:space="preserve">
<g>
	<g>
		<path fill-rule="evenodd" clip-rule="evenodd" fill="#FEFEFE" d="M102.463,152.971c1.038,1.245,2.391,1.86,3.988,1.979
			c2.133,0.81,4.265,1.619,6.664,2.53c0-19.492,0-38.568,0-58.365c-1.717,1.607-2.923,2.686-4.072,3.821
			c-10.459,10.322-19.989,21.554-30.82,31.513c-1.798,1.652-4.063,2.92-4.788,5.513c-0.706,0.647-0.369,1.279,0.255,1.554
			C83.142,145.681,92.579,149.89,102.463,152.971z M113.314,49.073c0-6.498-0.08-12.999,0.041-19.495
			c0.046-2.441-0.537-3.975-3.037-4.958C97.662,19.646,85.066,14.513,72.46,9.405c-1.826-0.74-3.055-1.103-3.037,1.717
			c0.086,13.826,0.067,27.654,0.012,41.479c-0.008,1.825,0.827,2.687,2.376,3.304c12.793,5.098,25.597,10.17,38.337,15.396
			c2.681,1.101,3.206,0.216,3.185-2.232C113.274,62.405,113.312,55.739,113.314,49.073z M69.339,134.25
			c14.07-13.925,27.294-27.03,40.541-40.112c2.939-2.903,4.78-10.843,3.431-14.657c-0.408-1.153-1.281-1.417-2.188-1.782
			c-12.913-5.208-25.832-10.4-38.739-15.626c-2.254-0.913-3.137-0.643-3.084,2.169c0.171,9.149,0.043,18.305,0.04,27.458
			C69.335,105.609,69.339,119.516,69.339,134.25z M118.601,154.512c13.869-13.714,27.185-26.88,40.996-40.537
			c-13.162-5.717-26.008-11.322-38.882-16.86c-1.962-0.845-2.129,0.521-2.127,2.045
			C118.609,117.408,118.601,135.654,118.601,154.512z"/>
		<path fill-rule="evenodd" clip-rule="evenodd" fill="#D4CD34" d="M113.313,49.073c-0.001,6.666-0.039,13.332,0.02,19.997
			c0.021,2.448-0.504,3.333-3.185,2.232c-12.74-5.227-25.544-10.298-38.337-15.396c-1.549-0.617-2.384-1.479-2.376-3.304
			c0.056-13.825,0.074-27.653-0.012-41.479c-0.018-2.819,1.211-2.457,3.037-1.717c12.605,5.108,25.201,10.241,37.857,15.216
			c2.5,0.982,3.083,2.517,3.037,4.958C113.234,36.075,113.314,42.575,113.313,49.073z"/>
		<path fill-rule="evenodd" clip-rule="evenodd" fill="#E1774E" d="M69.339,134.25c0-14.734-0.004-28.641,0.001-42.548
			c0.003-9.153,0.131-18.309-0.04-27.458c-0.053-2.812,0.83-3.083,3.084-2.169C85.292,67.299,98.21,72.492,111.124,77.7
			c0.906,0.365,1.779,0.628,2.188,1.782c1.35,3.814-0.491,11.753-3.431,14.657C96.633,107.22,83.41,120.325,69.339,134.25z"/>
		<path fill-rule="evenodd" clip-rule="evenodd" fill="#D4CD36" d="M118.601,154.512c0-18.858,0.008-37.104-0.013-55.353
			c-0.002-1.524,0.165-2.89,2.127-2.045c12.874,5.538,25.72,11.144,38.882,16.86C145.786,127.632,132.47,140.798,118.601,154.512z"
			/>
		<path fill-rule="evenodd" clip-rule="evenodd" fill="#D2F8FE" d="M73.435,139.962c0.725-2.593,2.99-3.861,4.788-5.513
			c10.831-9.959,20.361-21.191,30.82-31.513c1.149-1.136,2.355-2.214,4.072-3.821c0,19.797,0,38.873,0,58.365
			c-2.399-0.911-4.531-1.721-6.664-2.53c-3.788-6.975-7.941-13.767-10.355-21.418c-0.37-1.174-1.42-1.965-2.635-0.557
			C86.712,135.092,80.624,139.103,73.435,139.962z"/>
		<path fill-rule="evenodd" clip-rule="evenodd" fill="#CCF2FE" d="M73.435,139.962c7.188-0.859,13.277-4.871,20.026-6.988
			c3,6.666,6.001,13.332,9.002,19.997c-9.885-3.081-19.321-7.29-28.773-11.455C73.066,141.242,72.729,140.61,73.435,139.962z"/>
		<path fill-rule="evenodd" clip-rule="evenodd" fill="#C6ECFC" d="M102.463,152.971c-3.001-6.665-6.002-13.331-9.002-19.997
			c1.215-1.408,2.265-0.617,2.635,0.557c2.414,7.652,6.567,14.444,10.355,21.418C104.854,154.832,103.501,154.216,102.463,152.971z"
			/>
	</g>
	<text transform="matrix(1 0 0 1 49.2808 194.6802)" fill="#D4CD34" font-family="'OswaldStencil-Bold'" font-size="36">LifeBits</text>
</g>
</svg>
